<svg xmlns="http://www.w3.org/2000/svg" width="179" height="39" viewBox="0 0 179 39"><g><g><g><path fill="#aeaeae" d="M115 4.046h1V33.95h-1z"/></g><g><g><text dominant-baseline="text-before-edge" style="line-height:15px" fill="#aeaeae" font-family="'OpenSans','OpenSans'" font-size="12" font-style="none" font-weight="400" transform="translate(131 7)"><tspan style="font-kerning:normal" letter-spacing="2.64">Email </tspan><tspan style="font-kerning:normal" letter-spacing="2.64">Matrix</tspan></text></g></g><g><path fill="#4676a9" d="M0 0h97v39H0zm4 35h89V4H4zm7-25h18v4H15v3h10v4H15v4h14v4H11zm24 0h3.999v-.001l8 8 8-8 .002.001H59v19h-4V15.999l-8 8-8-8v13h-4zm28-.001h6l6 6 6-6h6l-12 12zm25 19h-6l-5-5 3-3zm-18-8l3 3-5 5h-6z"/></g></g></g></svg>