<svg xmlns="http://www.w3.org/2000/svg" width="176" height="39.001" viewBox="0 0 176 39.001">
  <g id="Group_2" data-name="Group 2" transform="translate(-898 -80)">
    <rect id="Shape_3" data-name="Shape 3" width="1" height="29.91" transform="translate(1013 84.05)" fill="#aeaeae"/>
    <text id="Email_Matrix" data-name="Email
Matrix" transform="translate(1028 96.177)" fill="#aeaeae" font-size="12" font-family="ArialMT, Arial" letter-spacing="0.22em"><tspan x="0" y="0">Email</tspan><tspan x="0" y="15">Matrix</tspan></text>
    <path id="Rectangle_7" data-name="Rectangle 7" d="M995,119H898V80h97v39h0Zm-93-4h89V84H902Zm51-6V96l-8,8-3-3-5-5v13h-4V90h4l8,8,8-8h4v19Zm-44,0V90h18v4H913v3h10v4H913v4h14v4Zm71,0-5-5,3-3,8,8Zm-20,0,8-8,3,3-5,5Zm10-10-9-9h6l6,6,6-6h6l-12,12Z" fill="#4676a9"/>
  </g>
</svg>
